<svg width="96" height="45" viewBox="0 0 96 45" fill="none" xmlns="http://www.w3.org/2000/svg">
<path d="M31.4091 28.344H33.7291V32.472L37.2011 28.344H39.9691L35.5851 33.4L39.7451 39H36.9291L33.7291 34.696V39H31.4091V28.344ZM41.3808 28.344H43.7008V39H41.3808V28.344ZM47.7453 39.016C46.988 39.016 46.4226 39.0107 46.0493 39V28.344C46.508 28.3333 47.1853 28.328 48.0813 28.328C48.988 28.328 49.6653 28.3333 50.1133 28.344C51.1586 28.3547 52.0653 28.568 52.8333 28.984C53.612 29.3893 54.2093 29.9707 54.6253 30.728C55.052 31.4853 55.2653 32.3707 55.2653 33.384C55.2653 34.4933 55.02 35.4693 54.5293 36.312C54.0493 37.1547 53.3666 37.8107 52.4813 38.28C51.6066 38.7493 50.588 38.9893 49.4253 39C49.052 39.0107 48.492 39.016 47.7453 39.016ZM49.4093 36.984C50.4866 36.984 51.3346 36.6693 51.9533 36.04C52.572 35.4107 52.8813 34.5467 52.8813 33.448C52.8813 32.456 52.6146 31.6933 52.0813 31.16C51.5586 30.6267 50.8013 30.36 49.8093 30.36H48.3693V36.984H49.4093ZM59.9907 39.208C59.372 39.208 58.78 39.1387 58.2147 39C57.66 38.8613 57.18 38.6747 56.7747 38.44L56.9667 36.296C57.4467 36.5947 57.948 36.8293 58.4707 37C59.004 37.16 59.4947 37.24 59.9427 37.24C60.4547 37.24 60.8707 37.1333 61.1907 36.92C61.5107 36.7067 61.6707 36.424 61.6707 36.072C61.6707 35.784 61.564 35.5653 61.3507 35.416C61.1374 35.256 60.8014 35.0853 60.3427 34.904L59.9587 34.744C59.9054 34.7227 59.8467 34.7013 59.7827 34.68C59.7187 34.648 59.644 34.616 59.5587 34.584C58.9614 34.3387 58.4814 34.1093 58.1187 33.896C57.756 33.672 57.4414 33.3627 57.1747 32.968C56.9187 32.5733 56.7907 32.0613 56.7907 31.432C56.7907 30.408 57.1374 29.6027 57.8307 29.016C58.524 28.4293 59.4894 28.136 60.7267 28.136C61.6654 28.136 62.6254 28.328 63.6067 28.712L63.2547 30.824C62.86 30.6 62.4334 30.424 61.9747 30.296C61.5267 30.168 61.1 30.104 60.6947 30.104C60.1934 30.104 59.804 30.2053 59.5267 30.408C59.2494 30.6 59.1107 30.8613 59.1107 31.192C59.1107 31.48 59.2067 31.704 59.3987 31.864C59.5907 32.024 59.9 32.1947 60.3267 32.376L60.9827 32.632C61.6014 32.8667 62.1134 33.096 62.5187 33.32C62.924 33.544 63.2707 33.8693 63.5587 34.296C63.8467 34.712 63.9907 35.256 63.9907 35.928C63.9907 36.9627 63.6387 37.768 62.9347 38.344C62.2307 38.92 61.2494 39.208 59.9907 39.208Z" fill="white"/>
<path d="M12.545 23.6355L7.96613 24.7811C7.33234 24.9397 6.89481 25.0011 6.65355 24.9652C6.41228 24.9294 6.26723 24.8076 6.21838 24.6L3.32859 12.3153C3.24921 11.9778 3.33501 11.7021 3.58599 11.4882C3.83391 11.2612 4.30711 11.0604 5.00558 10.8856L9.37103 9.79342C11.8545 9.17209 13.6843 9.2365 14.8606 9.98668C16.0338 10.7239 16.9242 12.3839 17.5318 14.9667C18.1394 17.5495 18.0753 19.4896 17.3396 20.7868C16.6008 22.0711 15.0026 23.0207 12.545 23.6355ZM9.82058 12.7525C9.51015 12.8302 9.3093 12.9079 9.21803 12.9857L11.0682 20.851L11.8238 20.7444C12.2119 20.6474 12.4296 20.263 12.4771 19.5915C12.5375 18.9167 12.3876 17.8136 12.0273 16.282C11.667 14.7505 11.3223 13.7511 10.9933 13.2837C10.6642 12.8163 10.2733 12.6392 9.82058 12.7525Z" fill="#49CBF4"/>
<path d="M25.0814 10.9145L26.2545 20.7045C26.272 20.8501 25.9027 21.0181 25.1467 21.2086C24.4023 21.3841 23.6267 21.5233 22.8199 21.6261C22.0263 21.7272 21.5065 21.7599 21.2605 21.724C21.0261 21.6733 20.8987 21.5618 20.878 21.3897L19.7477 11.9572C19.7128 11.6659 20.049 11.3341 20.7564 10.9617C21.4754 10.5744 22.278 10.3242 23.1641 10.2113C24.3677 10.0579 25.0068 10.2923 25.0814 10.9145ZM21.7573 6.03576C22.6303 5.9245 23.3273 5.97007 23.8484 6.17247C24.3811 6.35994 24.688 6.79127 24.7689 7.46644C24.9117 8.65791 24.0572 9.37165 22.2055 9.60766C20.3538 9.84366 19.3566 9.36593 19.2138 8.17445C19.071 6.98297 19.9189 6.27008 21.7573 6.03576Z" fill="#49CBF4"/>
<path d="M37.8965 11.6944C37.9076 11.8808 37.6577 12.3975 37.147 13.2447C36.6487 14.0777 35.8892 15.2344 34.8683 16.7149L38.082 16.5123C38.4146 16.4913 38.6086 16.9467 38.6638 17.8784C38.7001 18.4906 38.646 19.0418 38.5014 19.5319C38.356 20.0086 38.1569 20.255 37.9041 20.2709L29.3012 20.8133C28.9419 20.836 28.6638 20.5395 28.4671 19.924C28.2828 19.2944 28.169 18.6135 28.1256 17.8815C28.1161 17.7218 28.3938 17.2233 28.9586 16.3861C29.5359 15.5348 30.3999 14.3381 31.5506 12.7959L28.4967 12.9885C28.164 13.0095 27.9701 12.5541 27.9148 11.6224C27.8786 11.0101 27.9264 10.4661 28.0585 9.99013C28.2031 9.50007 28.4085 9.24665 28.6746 9.22987L36.7585 8.72018C37.3973 8.67991 37.7766 9.67133 37.8965 11.6944Z" fill="#49CBF4"/>
<path d="M44.1184 20.0541C43.7851 20.0493 43.2985 20.0423 42.6585 20.033C42.0319 20.024 41.6059 19.9712 41.3806 19.8746C41.1552 19.778 41.0438 19.6297 41.0466 19.4297L41.2175 6.8109C41.2217 6.50427 41.6316 6.27015 42.4472 6.10855C43.2763 5.93381 44.1575 5.85317 45.0907 5.86662C46.0239 5.88007 46.6889 6.00967 47.0856 6.25541C47.4823 6.50115 47.7122 6.75782 47.7752 7.02543L49.0636 12.3245L49.2435 12.3271L50.5917 7.30604C50.6899 6.94742 51.1274 6.64036 51.9043 6.38486C52.6947 6.11622 53.5565 5.98863 54.4897 6.00208C55.423 6.01553 56.1086 6.09875 56.5465 6.25174C56.9978 6.40493 57.2219 6.59485 57.2189 6.82149L57.0449 19.6603C57.0425 19.8336 56.6607 19.9681 55.8993 20.0638C55.138 20.1596 54.2107 20.1995 53.1174 20.1838C52.0242 20.168 51.4802 19.9668 51.4855 19.5802C51.4997 18.527 51.6384 16.6554 51.9016 13.9656L51.7216 13.963L50.611 19.1675C50.5683 19.367 50.3996 19.5112 50.1051 19.6003C49.8238 19.6896 49.3966 19.7301 48.8233 19.7218C48.25 19.7136 47.8973 19.6685 47.765 19.5866C47.6461 19.5049 47.5682 19.3504 47.5313 19.1232L46.5221 13.8881L46.3422 13.8855C46.5449 16.6354 46.6395 18.5102 46.626 19.5102C46.6213 19.8568 45.7854 20.0381 44.1184 20.0541Z" fill="#49CBF4"/>
<path d="M65.4242 10.6029L64.6632 20.4335C64.6519 20.5797 64.2573 20.6676 63.4794 20.6972C62.7158 20.7146 61.9287 20.6899 61.1181 20.6232C60.3208 20.5576 59.8051 20.4817 59.571 20.3955C59.3513 20.2971 59.2481 20.1615 59.2615 19.9887L59.9947 10.5171C60.0174 10.2246 60.4116 9.96943 61.1773 9.75153C61.9574 9.52144 62.7926 9.44304 63.6829 9.51635C64.8922 9.61591 65.4726 9.97809 65.4242 10.6029ZM63.1194 5.13538C63.9964 5.20759 64.6705 5.39687 65.1416 5.70322C65.627 5.99738 65.8434 6.48344 65.791 7.16141C65.6983 8.35783 64.7218 8.87946 62.8615 8.72628C61.0011 8.57311 60.1172 7.89832 60.2098 6.7019C60.3025 5.50548 61.2723 4.9833 63.1194 5.13538Z" fill="#49CBF4"/>
<path d="M72.139 22.0287C69.9517 21.6902 68.3815 21.2313 67.4284 20.6521C66.9471 20.3482 66.7219 20.0908 66.7526 19.8797C66.8313 19.3387 67.0816 18.7298 67.5034 18.0531C67.9252 17.3763 68.2547 17.0563 68.4919 17.093C68.6237 17.1134 69.044 17.3268 69.7528 17.7334C70.4748 18.1419 71.0927 18.386 71.6066 18.4655C72.1337 18.547 72.4811 18.5671 72.6488 18.5256C72.8297 18.4861 72.9335 18.374 72.9604 18.1893C72.9892 17.9914 72.8795 17.8193 72.6314 17.6729C72.3851 17.5134 72.0672 17.3832 71.6777 17.2825C71.2882 17.1817 70.8714 17.0363 70.4275 16.8462C69.9968 16.6581 69.5973 16.4411 69.2288 16.1952C68.8604 15.9493 68.5752 15.5948 68.3731 15.1318C68.1729 14.6556 68.1083 14.1734 68.1794 13.6853C68.2523 13.1839 68.3193 12.8165 68.3802 12.583C68.443 12.3364 68.5983 12.0097 68.8462 11.6028C69.1091 11.1848 69.432 10.8638 69.8149 10.6397C70.211 10.4177 70.7877 10.2506 71.5451 10.1384C72.3156 10.0283 73.1554 10.0436 74.0646 10.1843C74.9738 10.325 75.7266 10.4753 76.3231 10.6351C76.9348 10.7837 77.4051 10.9307 77.7343 11.0761C78.0766 11.2235 78.3511 11.3739 78.5579 11.5273C78.9112 11.7844 79.0706 12.0316 79.036 12.2691C78.9611 12.7837 78.6903 13.3489 78.2234 13.9647C77.7565 14.5805 77.4111 14.8711 77.1871 14.8365C76.9763 14.8038 76.5248 14.6193 75.8328 14.2828C75.1426 13.9332 74.6263 13.7318 74.2837 13.6788C73.7303 13.5932 73.4305 13.7087 73.3844 14.0253C73.3556 14.2233 73.518 14.4035 73.8716 14.5662C74.2403 14.7177 74.6805 14.887 75.1922 15.0741C75.7039 15.2612 76.2089 15.4945 76.7071 15.774C77.2205 16.0424 77.6251 16.4558 77.9211 17.0143C78.2303 17.5748 78.3292 18.2377 78.2178 19.0029C77.8415 21.589 75.8153 22.5976 72.139 22.0287Z" fill="#49CBF4"/>
<path d="M83.2936 24.5426C81.2012 23.821 79.7355 23.0899 78.8966 22.3493C78.4749 21.9642 78.2969 21.6702 78.3627 21.4672C78.5314 20.9472 78.88 20.3906 79.4087 19.7973C79.9374 19.2041 80.3152 18.9466 80.5421 19.0248C80.6681 19.0683 81.0452 19.3534 81.6732 19.8802C82.3138 20.4114 82.8799 20.7617 83.3715 20.9313C83.8757 21.1051 84.2137 21.1865 84.3855 21.1752C84.5699 21.1683 84.6909 21.0761 84.7485 20.8985C84.8102 20.7082 84.7314 20.5189 84.5122 20.3305C84.2971 20.1294 84.0067 19.9447 83.6409 19.7762C83.2751 19.6077 82.8901 19.3904 82.4859 19.1241C82.0944 18.8621 81.7383 18.5772 81.4178 18.2692C81.0972 17.9612 80.8767 17.5608 80.7562 17.068C80.6398 16.5625 80.6577 16.0752 80.8098 15.6059C80.9661 15.1239 81.0939 14.7731 81.1931 14.5535C81.2964 14.3212 81.5042 14.0262 81.8164 13.6686C82.1453 13.3025 82.5168 13.0428 82.9309 12.8895C83.3576 12.7405 83.9525 12.6778 84.7157 12.7012C85.4915 12.7291 86.3142 12.8929 87.1839 13.1929C88.0537 13.4928 88.7682 13.7745 89.3274 14.0379C89.9034 14.2929 90.3409 14.5213 90.6398 14.7231C90.9514 14.9293 91.1958 15.1264 91.373 15.3144C91.6769 15.6307 91.7918 15.903 91.7178 16.1313C91.5574 16.626 91.1959 17.1359 90.6332 17.661C90.0705 18.1861 89.682 18.4117 89.4677 18.3378C89.2661 18.2683 88.8536 18.0062 88.2302 17.5515C87.611 17.0841 87.1375 16.7939 86.8097 16.6809C86.2803 16.4983 85.9663 16.5592 85.8676 16.8636C85.8059 17.0539 85.9351 17.2606 86.2551 17.4838C86.5919 17.6986 86.9959 17.9437 87.4672 18.219C87.9385 18.4944 88.3954 18.8141 88.8379 19.1782C89.2971 19.534 89.625 20.0138 89.8217 20.6174C90.031 21.2255 90.0163 21.8973 89.7778 22.6329C88.9718 25.1188 86.8104 25.7554 83.2936 24.5426Z" fill="#49CBF4"/>
</svg>
